
    <svg xmlns="http://www.w3.org/2000/svg" width="800" height="480" viewBox="0 0 800 480" role="img" aria-label="شريط الإعلان المتحرك">
      <defs>
        <linearGradient id="g" x1="0" y1="0" x2="1" y2="1">
          <stop offset="0" stop-color="#ec4899"/>
          <stop offset="1" stop-color="#7c3aed"/>
        </linearGradient>
        <linearGradient id="soft" x1="0" y1="0" x2="1" y2="1">
          <stop offset="0" stop-color="#ec4899" stop-opacity=".14"/>
          <stop offset="1" stop-color="#7c3aed" stop-opacity=".08"/>
        </linearGradient>
        <filter id="shadow" x="-20%" y="-20%" width="140%" height="140%">
          <feDropShadow dx="0" dy="14" stdDeviation="16" flood-color="#0f1738" flood-opacity=".14"/>
        </filter>
      </defs>
      <rect width="800" height="480" rx="30" fill="#fff1f7"/>
      <circle cx="80" cy="70" r="110" fill="#ec4899" opacity=".08"/>
      <circle cx="728" cy="420" r="145" fill="#7c3aed" opacity=".07"/>
      <g filter="url(#shadow)">
        <rect x="34" y="34" width="732" height="412" rx="26" fill="#fff"/>
        <rect x="34" y="34" width="732" height="44" rx="26" fill="#11182d"/>
        <rect x="34" y="58" width="732" height="20" fill="#11182d"/>
        <circle cx="60" cy="56" r="5" fill="#ff6684"/>
        <circle cx="77" cy="56" r="5" fill="#ffc857"/>
        <circle cx="94" cy="56" r="5" fill="#35d39a"/>
        <rect x="300" y="48" width="200" height="16" rx="8" fill="#202945"/>
        <g transform="translate(0 78)"><rect x="40" y="80" width="652" height="48" rx="14" fill="url(#g)" opacity="1"/><rect x="90" y="98" width="170" height="10" rx="5" fill="#fff" opacity="0.9"/><rect x="310" y="98" width="125" height="10" rx="5" fill="#fff" opacity="0.62"/><rect x="490" y="98" width="150" height="10" rx="5" fill="#fff" opacity="0.82"/><rect x="60" y="165" width="612" height="100" rx="20" fill="url(#soft)" opacity="1"/><rect x="90" y="195" width="180" height="13" rx="7" fill="#1f2937" opacity="0.7"/><rect x="90" y="222" width="310" height="8" rx="4" fill="#d9e0eb" opacity="1"/></g>
      </g>
      <rect x="568" y="394" width="164" height="28" rx="14" fill="#10172d" opacity=".93"/>
      <text x="650" y="413" fill="#fff" font-size="12" text-anchor="middle" font-family="Tahoma,Arial" direction="rtl">شريط الإعلان المتحرك</text>
    </svg>