<svg xmlns="http://www.w3.org/2000/svg" viewBox="0 0 800 500" role="img" aria-labelledby="t d"><title id="t">إطلاق متجر إلكتروني</title><desc id="d">واجهة متجر جديدة مع الصفحة الرئيسية والمنتجات</desc><defs><linearGradient id="bg" x1="0" y1="0" x2="1" y2="1"><stop stop-color="#0B122A"/><stop offset="1" stop-color="#111A3D"/></linearGradient><linearGradient id="g" x1="0" y1="0" x2="1" y2="1"><stop stop-color="#22D3EE"/><stop offset=".45" stop-color="#5D83FF"/><stop offset="1" stop-color="#8B5CF6"/></linearGradient></defs><rect width="800" height="500" rx="34" fill="url(#bg)"/><circle cx="655" cy="95" r="125" fill="#22D3EE" opacity=".08"/><rect x="84" y="68" width="632" height="362" rx="24" fill="#F8F7F4"/><rect x="84" y="68" width="632" height="42" rx="24" fill="#151B30"/><circle cx="112" cy="89" r="6" fill="#FF6A83"/><circle cx="132" cy="89" r="6" fill="#FFC85F"/><circle cx="152" cy="89" r="6" fill="#4BD6A7"/><rect x="112" y="132" width="576" height="144" rx="18" fill="#E9EDF7"/><rect x="140" y="158" width="190" height="16" rx="8" fill="#15213F"/><rect x="140" y="184" width="142" height="10" rx="5" fill="#8D97AB"/><rect x="140" y="211" width="92" height="28" rx="9" fill="url(#g)"/><rect x="476" y="150" width="120" height="103" rx="18" fill="#DDE5FA"/><circle cx="536" cy="195" r="31" fill="url(#g)" opacity=".75"/><g fill="#EEF1F7"><rect x="112" y="296" width="132" height="106" rx="15"/><rect x="258" y="296" width="132" height="106" rx="15"/><rect x="404" y="296" width="132" height="106" rx="15"/><rect x="550" y="296" width="138" height="106" rx="15"/></g><g fill="#CBD4E6"><rect x="130" y="312" width="96" height="60" rx="12"/><rect x="276" y="312" width="96" height="60" rx="12"/><rect x="422" y="312" width="96" height="60" rx="12"/><rect x="568" y="312" width="102" height="60" rx="12"/></g></svg>