<svg xmlns="http://www.w3.org/2000/svg" viewBox="0 0 720 420" role="img" aria-labelledby="t d"><title id="t">أنظمة ولوحات تحكم</title><desc id="d">مشهد تجريدي لنظام رقمي ولوحة تحكم مترابطة.</desc><defs><linearGradient id="g" x1="0" y1="0" x2="1" y2="1"><stop stop-color="#8a5cf6"/><stop offset="1" stop-color="#5d83ff"/></linearGradient></defs><rect width="720" height="420" rx="34" fill="#0a1024"/><circle cx="555" cy="110" r="120" fill="#8a5cf6" opacity=".12"/><rect x="86" y="70" width="548" height="280" rx="28" fill="#101936" stroke="#9c8bff" stroke-opacity=".24"/><rect x="112" y="100" width="115" height="220" rx="18" fill="#0c1430"/><rect x="255" y="100" width="350" height="74" rx="18" fill="url(#g)" opacity=".2"/><rect x="255" y="194" width="165" height="126" rx="18" fill="#fff" opacity=".055"/><rect x="440" y="194" width="165" height="126" rx="18" fill="#fff" opacity=".055"/><circle cx="169" cy="145" r="24" fill="#8a5cf6" opacity=".28"/><rect x="135" y="191" width="67" height="10" rx="5" fill="#fff" opacity=".12"/><rect x="135" y="216" width="51" height="10" rx="5" fill="#fff" opacity=".08"/><path d="M285 286l38-37 37 20 45-55" fill="none" stroke="#9a8bff" stroke-width="6" stroke-linecap="round" stroke-linejoin="round"/><circle cx="505" cy="249" r="34" fill="#5d83ff" opacity=".18"/><circle cx="548" cy="275" r="22" fill="#8a5cf6" opacity=".22"/></svg>